<svg width="122" height="56" viewBox="0 0 122 56" fill="none" xmlns="http://www.w3.org/2000/svg">
<path d="M0 0H38.6076V19.3038C38.6076 29.9595 29.9595 38.6076 19.3038 38.6076C8.64811 38.6076 0 29.9595 0 19.3038V0Z" fill="#ED1C24"/>
<path d="M11.5828 0H27.0258V19.3038C27.0258 23.5661 23.5666 27.0253 19.3043 27.0253C15.042 27.0253 11.5828 23.5661 11.5828 19.3038V0Z" fill="#D11C24"/>
<path d="M19.3043 27.0258C23.5688 27.0258 27.0258 23.5688 27.0258 19.3043C27.0258 15.0398 23.5688 11.5828 19.3043 11.5828C15.0398 11.5828 11.5828 15.0398 11.5828 19.3043C11.5828 23.5688 15.0398 27.0258 19.3043 27.0258Z" fill="#FF9B00"/>
<path d="M19.3043 55.5949C23.5688 55.5949 27.0258 52.1379 27.0258 47.8734C27.0258 43.6089 23.5688 40.1519 19.3043 40.1519C15.0398 40.1519 11.5828 43.6089 11.5828 47.8734C11.5828 52.1379 15.0398 55.5949 19.3043 55.5949Z" fill="#FF9B00"/>
<path d="M41.6963 0.277344H80.3039V19.5812C80.3039 30.2369 71.6558 38.885 61.0001 38.885C50.3444 38.885 41.6963 30.2369 41.6963 19.5812V0.277344Z" fill="#0000FF"/>
<path d="M53.2791 0H68.7221V19.3038C68.7221 23.5661 65.2629 27.0253 61.0006 27.0253C56.7383 27.0253 53.2791 23.5661 53.2791 19.3038V0Z" fill="#0000D6"/>
<path d="M61.0006 27.0258C65.2651 27.0258 68.7221 23.5688 68.7221 19.3043C68.7221 15.0398 65.2651 11.5828 61.0006 11.5828C56.7361 11.5828 53.2791 15.0398 53.2791 19.3043C53.2791 23.5688 56.7361 27.0258 61.0006 27.0258Z" fill="#FFC700"/>
<path d="M61.0006 55.5949C65.2651 55.5949 68.7221 52.1379 68.7221 47.8734C68.7221 43.6089 65.2651 40.1519 61.0006 40.1519C56.7361 40.1519 53.2791 43.6089 53.2791 47.8734C53.2791 52.1379 56.7361 55.5949 61.0006 55.5949Z" fill="#FFC700"/>
<path d="M83.3926 0H122V19.3038C122 29.9595 113.352 38.6076 102.696 38.6076C92.0407 38.6076 83.3926 29.9595 83.3926 19.3038V0Z" fill="#FF9B00"/>
<path d="M94.9753 0H110.418V19.3038C110.418 23.5661 106.959 27.0253 102.697 27.0253C98.4346 27.0253 94.9753 23.5661 94.9753 19.3038V0Z" fill="#FF7B12"/>
<path d="M102.697 27.0258C106.961 27.0258 110.418 23.5688 110.418 19.3043C110.418 15.0398 106.961 11.5828 102.697 11.5828C98.4324 11.5828 94.9753 15.0398 94.9753 19.3043C94.9753 23.5688 98.4324 27.0258 102.697 27.0258Z" fill="#FFC700"/>
<path d="M102.697 55.5949C106.961 55.5949 110.418 52.1379 110.418 47.8734C110.418 43.6089 106.961 40.1519 102.697 40.1519C98.4324 40.1519 94.9753 43.6089 94.9753 47.8734C94.9753 52.1379 98.4324 55.5949 102.697 55.5949Z" fill="#FFC700"/>
</svg>
