<svg width="122" height="56" viewBox="0 0 122 56" fill="none" xmlns="http://www.w3.org/2000/svg">
<path d="M0 0H38.6076V19.3038C38.6076 29.9595 29.9595 38.6076 19.3038 38.6076C8.64811 38.6076 0 29.9595 0 19.3038V0Z" fill="#ED1C24"/>
<path d="M11.583 0H27.0261V19.3038C27.0261 23.5661 23.5668 27.0253 19.3045 27.0253C15.0423 27.0253 11.583 23.5661 11.583 19.3038V0Z" fill="#D11C24"/>
<path d="M19.3045 27.0258C23.569 27.0258 27.0261 23.5688 27.0261 19.3043C27.0261 15.0398 23.569 11.5828 19.3045 11.5828C15.0401 11.5828 11.583 15.0398 11.583 19.3043C11.583 23.5688 15.0401 27.0258 19.3045 27.0258Z" fill="#FF9B00"/>
<path d="M19.3045 55.5949C23.569 55.5949 27.0261 52.1379 27.0261 47.8734C27.0261 43.6089 23.569 40.1519 19.3045 40.1519C15.0401 40.1519 11.583 43.6089 11.583 47.8734C11.583 52.1379 15.0401 55.5949 19.3045 55.5949Z" fill="#FF9B00"/>
<path d="M41.6963 0.277344H80.3039V19.5812C80.3039 30.2369 71.6558 38.885 61.0001 38.885C50.3444 38.885 41.6963 30.2369 41.6963 19.5812V0.277344Z" fill="#0000FF"/>
<path d="M53.2793 0H68.7224V19.3038C68.7224 23.5661 65.2631 27.0253 61.0008 27.0253C56.7385 27.0253 53.2793 23.5661 53.2793 19.3038V0Z" fill="#0000D6"/>
<path d="M61.0008 27.0258C65.2653 27.0258 68.7224 23.5688 68.7224 19.3043C68.7224 15.0398 65.2653 11.5828 61.0008 11.5828C56.7363 11.5828 53.2793 15.0398 53.2793 19.3043C53.2793 23.5688 56.7363 27.0258 61.0008 27.0258Z" fill="#FFC700"/>
<path d="M61.0008 55.5949C65.2653 55.5949 68.7224 52.1379 68.7224 47.8734C68.7224 43.6089 65.2653 40.1519 61.0008 40.1519C56.7363 40.1519 53.2793 43.6089 53.2793 47.8734C53.2793 52.1379 56.7363 55.5949 61.0008 55.5949Z" fill="#FFC700"/>
<path d="M83.3926 0H122V19.3038C122 29.9595 113.352 38.6076 102.696 38.6076C92.0407 38.6076 83.3926 29.9595 83.3926 19.3038V0Z" fill="#FF9B00"/>
<path d="M94.9756 0H110.419V19.3038C110.419 23.5661 106.959 27.0253 102.697 27.0253C98.4348 27.0253 94.9756 23.5661 94.9756 19.3038V0Z" fill="#FF7B12"/>
<path d="M102.697 27.0258C106.962 27.0258 110.419 23.5688 110.419 19.3043C110.419 15.0398 106.962 11.5828 102.697 11.5828C98.4326 11.5828 94.9756 15.0398 94.9756 19.3043C94.9756 23.5688 98.4326 27.0258 102.697 27.0258Z" fill="#FFC700"/>
<path d="M102.697 55.5949C106.962 55.5949 110.419 52.1379 110.419 47.8734C110.419 43.6089 106.962 40.1519 102.697 40.1519C98.4326 40.1519 94.9756 43.6089 94.9756 47.8734C94.9756 52.1379 98.4326 55.5949 102.697 55.5949Z" fill="#FFC700"/>
</svg>
 